<?xml version="1.0" standalone="no"?>
<!DOCTYPE svg PUBLIC "-//W3C//DTD SVG 20010904//EN"
 "http://www.w3.org/TR/2001/REC-SVG-20010904/DTD/svg10.dtd">
<svg version="1.0" xmlns="http://www.w3.org/2000/svg"
 width="50.000000pt" height="50.000000pt" viewBox="0 0 50.000000 50.000000"
 preserveAspectRatio="xMidYMid meet">

<g transform="translate(0.000000,50.000000) scale(0.100000,-0.100000)"
fill="#000000" stroke="none">
<path d="M217 453 c-4 -3 -7 -15 -7 -26 0 -16 3 -17 14 -8 16 13 56 -1 56 -19
0 -6 4 -10 10 -10 6 0 5 10 -2 25 -6 13 -15 22 -19 19 -5 -3 -9 3 -9 13 0 15
-2 16 -10 3 -8 -12 -12 -12 -18 -2 -5 7 -11 9 -15 5z"/>
<path d="M233 384 c0 -8 4 -14 9 -14 4 0 8 5 8 11 0 5 6 7 13 3 6 -4 8 -3 4 1
-13 15 -34 14 -34 -1z"/>
<path d="M250 344 c0 -8 5 -12 10 -9 6 3 10 10 10 16 0 5 -4 9 -10 9 -5 0 -10
-7 -10 -16z"/>
<path d="M198 326 c-3 -16 0 -27 9 -30 21 -8 20 -9 25 24 4 23 1 30 -13 30
-10 0 -19 -10 -21 -24z"/>
<path d="M284 138 c-3 -5 4 -8 15 -8 11 0 27 -7 35 -16 15 -14 16 -14 16 0 0
9 5 16 10 16 6 0 10 4 10 9 0 10 -80 9 -86 -1z"/>
<path d="M200 91 c32 -39 34 -40 52 -24 17 15 19 15 36 -1 18 -15 20 -15 37 4
18 20 18 20 -13 14 -28 -6 -32 -4 -32 14 0 18 -5 20 -37 18 -21 -2 -46 1 -57
7 -12 6 -8 -4 14 -32z"/>
</g>
</svg>
